<svg id="Layer_1" data-name="Layer 1" xmlns="http://www.w3.org/2000/svg" viewBox="0 0 87.5 86.5"><title>ExternalIcon</title><path d="M67.54,17.51,39.66,45.39a1.53,1.53,0,0,0,0,2.12L53.22,61.06a1.53,1.53,0,0,0,2.12,0L86.7,29.7H84.58l7.36,7.35A1.52,1.52,0,0,0,94.5,36V8.5A1.52,1.52,0,0,0,93,7H62.41a1.52,1.52,0,0,0-1.06,2.56l8.13,8.13V15.57a20.9,20.9,0,0,1-1.94,1.94c-1.48,1.23.65,3.35,2.13,2.12a22.08,22.08,0,0,0,1.93-1.94,1.53,1.53,0,0,0,0-2.12L63.47,7.44,62.41,10H93L91.5,8.5V36l2.56-1.06L86.7,27.57a1.53,1.53,0,0,0-2.12,0L53.22,58.94h2.12L41.79,45.39v2.12L69.67,19.63A1.5,1.5,0,0,0,67.54,17.51Z" transform="translate(-7 -7)"/><path d="M62.5,15H8.5A1.52,1.52,0,0,0,7,16.5V92a1.52,1.52,0,0,0,1.5,1.5h77A1.52,1.52,0,0,0,87,92V35.64a1.5,1.5,0,0,0-3,0V92l1.5-1.5H8.5L10,92V16.5L8.5,18h54a1.5,1.5,0,0,0,0-3Z" transform="translate(-7 -7)"/></svg>