<svg id="Layer_1" data-name="Layer 1" xmlns="http://www.w3.org/2000/svg" xmlns:xlink="http://www.w3.org/1999/xlink" viewBox="0 0 536.64 415.24"><defs><style>.cls-1{fill:none;}.cls-2{fill:url(#linear-gradient);}.cls-3{fill:#003a5d;}.cls-4{fill:#00c0dd;}.cls-5{fill:#005cb8;}.cls-6{fill:url(#linear-gradient-2);}.cls-7{clip-path:url(#clip-path);}.cls-8{fill:url(#radial-gradient);}</style><linearGradient id="linear-gradient" x1="268.32" y1="202.57" x2="268.32" y2="8.17" gradientUnits="userSpaceOnUse"><stop offset="0" stop-color="#fff041"/><stop offset="1" stop-color="#fab74f"/></linearGradient><linearGradient id="linear-gradient-2" x1="267.96" y1="250.47" x2="267.96" y2="284.48" gradientUnits="userSpaceOnUse"><stop offset="0.07" stop-color="#00c0dd"/><stop offset="0.16" stop-color="#00c0dd" stop-opacity="0.8"/><stop offset="0.26" stop-color="#00c0dd" stop-opacity="0.59"/><stop offset="0.37" stop-color="#00c0dd" stop-opacity="0.41"/><stop offset="0.49" stop-color="#00c0dd" stop-opacity="0.26"/><stop offset="0.6" stop-color="#00c0dd" stop-opacity="0.14"/><stop offset="0.73" stop-color="#00c0dd" stop-opacity="0.06"/><stop offset="0.85" stop-color="#00c0dd" stop-opacity="0.02"/><stop offset="1" stop-color="#00c0dd" stop-opacity="0"/></linearGradient><clipPath id="clip-path" transform="translate(-19.68 -80.38)"><path class="cls-1" d="M380.72,186.68l-39.15,55.6-5.28-25.41-6.7,42.44L318.7,274.76V251.52H307.33v3.53l0,.08v-3.8l-9,16.52v17.91l.12-.17,2.73-.45-2.52,3.36.16,1.9a35,35,0,0,0-26.57,1.6L268,284.81c-.73-8.75-1.3-15.51-1.3-15.52a.93.93,0,0,0-.3-.61,1,1,0,0,0,.46-.76c0-.11-1.16-8-1.16-8,0-.46-.52-.86-1.37-1.16,0-.11,0-.19,0-.21h0a.19.19,0,0,0,0-.08l.1-.06c1.1-.32,1.81-.8,1.89-1.34a.42.42,0,0,0,.08-.22c0-.65-2.07-1.87-2.07-2a.61.61,0,0,0-.27-.45,13.74,13.74,0,0,1,1.77-5.28,4.21,4.21,0,0,1,1-1c.8-.69.9-2.45.92-3a1.55,1.55,0,0,0,.31-.49c0-.2,0-.4,0-.6,0-2.07-1-16.49-5.64-18.7,0-.27,0-.94,0-1v0c0-.19-.37-.35-.88-.4,0-1.25-.19-5.3-.19-5.3s-.05,0-.12,0-.11,0-.11,0-.15,4.05-.2,5.3c-.5.05-.88.21-.88.4v0c0,.05,0,.69,0,1-4.73,2.17-5.64,16.64-5.64,18.72,0,.2,0,.4,0,.6a1.26,1.26,0,0,0,.31.49c0,.58.11,2.34.91,3a3.87,3.87,0,0,1,1,1.09,15.36,15.36,0,0,1,1.75,5.24.6.6,0,0,0-.25.44c0,.17-2.07,1.39-2.07,2a.42.42,0,0,0,.08.22c.07.54.79,1,1.88,1.34l.11.06s0,.06,0,.08h0s0,.1,0,.21c-.84.3-1.36.7-1.36,1.16,0,0-.3,2.06-.6,4.09l-6.16-10.71V202.87a21.68,21.68,0,0,0-16.55-21.05V155.69a.9.9,0,0,0-1.79,0v25.77a21.73,21.73,0,0,0-3.35-.28,5.2,5.2,0,0,0-5.2,5.2v20.18l-6-10.34-96.42-42.33L19.68,417.35,288,495.61l268.32-78.26L470.75,166Z"/></clipPath><radialGradient id="radial-gradient" cx="268.7" cy="247.22" r="111.91" xlink:href="#linear-gradient-2"/></defs><title>FIRST-InfiniteRecharge-RGB_Primary-full-color</title><polygon class="cls-2" points="536.64 336.97 536.64 89.23 268.32 10.75 0 89.01 0 336.97 268.32 333.98 536.64 336.97"/><path class="cls-1" d="M30.14,420.4,194,468.21,30.17,420.41Z" transform="translate(-19.68 -80.38)"/><path class="cls-1" d="M21.25,209.44c1.25-.54,2.51-1.05,3.79-1.51h0a60.77,60.77,0,0,1,19.42-3.61V184.37L47,184v20.34a62,62,0,0,1,12.19,1.43c.42.09.83.2,1.25.3V170.43l17.67-4.86V152.35l-58.43,17v40.77l1.18-.55Z" transform="translate(-19.68 -80.38)"/><path class="cls-1" d="M217,196.22l6,10.34V186.38a5.2,5.2,0,0,1,5.2-5.2,21.73,21.73,0,0,1,3.35.28V155.69a.9.9,0,0,1,1.79,0v26.13a21.68,21.68,0,0,1,16.55,21.05v50.41L256,264c.3-2,.6-4.08.6-4.09,0-.46.52-.86,1.36-1.16,0-.11,0-.19,0-.21h0s0,0,0-.08l-.11-.06c-1.09-.32-1.81-.8-1.88-1.34a.42.42,0,0,1-.08-.22c0-.65,2.07-1.87,2.07-2a.6.6,0,0,1,.25-.44,15.36,15.36,0,0,0-1.75-5.24,3.87,3.87,0,0,0-1-1.09c-.8-.69-.9-2.45-.91-3a1.26,1.26,0,0,1-.31-.49c0-.2,0-.4,0-.6,0-2.08.91-16.55,5.64-18.72,0-.28,0-.92,0-1v0c0-.19.38-.35.88-.4.05-1.25.2-5.3.2-5.3s.05,0,.11,0,.12,0,.12,0,.15,4.05.19,5.3c.51.05.88.21.88.4v0c0,.05,0,.72,0,1,4.6,2.21,5.64,16.63,5.64,18.7,0,.2,0,.4,0,.6a1.55,1.55,0,0,1-.31.49c0,.58-.12,2.34-.92,3a4.21,4.21,0,0,0-1,1,13.74,13.74,0,0,0-1.77,5.28.61.61,0,0,1,.27.45c0,.17,2.07,1.39,2.07,2a.42.42,0,0,1-.08.22c-.08.54-.79,1-1.89,1.34l-.1.06a.19.19,0,0,1,0,.08h0s0,.1,0,.21c.85.3,1.37.7,1.37,1.16,0,0,1.16,7.91,1.16,8a1,1,0,0,1-.46.76.93.93,0,0,1,.3.61s.57,6.77,1.3,15.52l4.14,7.19a35,35,0,0,1,26.57-1.6l-.16-1.9,2.52-3.36-2.73.45-.12.17V267.85l9-16.52v3.8l0-.08v-3.53H318.7v23.24l10.89-15.45,6.7-42.44,5.28,25.41,4-5.63v-59l10.73-19.6V126.17a.9.9,0,0,1,1.79,0v28.67l3.58-6.54V133.78a.89.89,0,1,1,1.78,0V145l5.42-9.9h0v0l26.46,8.31v-21L288,91.13l-93.72,27.34L217,167Z" transform="translate(-19.68 -80.38)"/><polygon class="cls-1" points="526.57 86.07 526.57 86.29 536.64 89.23 536.64 89.01 526.57 86.07"/><polygon class="cls-3" points="375.64 42.05 375.64 63.06 375.64 75.77 375.64 278.65 394.72 285.68 394.72 285.6 394.72 81.76 394.72 69.05 394.72 47.62 394.72 2.36 394.72 1.66 375.64 34.15 375.64 42.05"/><path class="cls-3" d="M185.44,99.63V356.91L217,345.39V167l-22.76-48.53Zm25.19,71.26,2.68,5.16v14.11l-2.68-4.65Zm0,27.18,2.68,4.22v10.57L210.63,209Zm0,20.62,2.68,3.5v8.32l-2.68-3.2Zm0,16.39,2.68,2.93v6.82l-2.68-2.68Zm0,13.54,2.68,2.46v5.77l-2.68-2.25Zm0,11.53,2.68,2.06v5l-2.68-1.88Zm0,10.08,2.68,1.71v4.46l-2.68-1.55Zm0,9,2.68,1.4v4.05l-2.68-1.25Zm0,8.23,2.68,1.11v3.75l-2.68-1Zm0,7.65,2.68.85v3.54l-2.68-.72Zm0,7.25,2.68.59v3.39l-2.68-.47Zm0,7,2.68.35V313l-2.68-.23Zm0,6.81,2.68.12v3.26h-2.68Zm0,6.76,2.68-.12v3.27l-2.68.24Zm0,6.8,2.68-.35v3.34l-2.68.47Zm0,7,2.68-.6v3.46l-2.68.72Zm-7.15-179.52,2.68,5.15v15.47l-2.68-4.65Zm0,29.69,2.68,4.21v11.59l-2.68-3.83Zm0,22.52,2.68,3.5V222l-2.68-3.19Zm0,17.92,2.68,2.92v7.48L203.48,235Zm0,14.79,2.68,2.45v6.33l-2.68-2.26Zm0,12.59,2.68,2.06v5.49l-2.68-1.88Zm0,11,2.68,1.71v4.89l-2.68-1.55Zm0,9.85,2.68,1.39v4.44l-2.68-1.25Zm0,9,2.68,1.11v4.11l-2.68-1Zm0,8.36,2.68.84v3.88l-2.68-.72Zm0,7.91,2.68.59v3.72l-2.68-.48Zm0,7.61,2.68.35v3.62l-2.68-.24Zm0,7.44,2.68.11v3.58h-2.68Zm0,7.38,2.68-.12v3.59l-2.68.23Zm0,7.44,2.68-.36V334l-2.68.47Zm0,7.61,2.68-.6v3.79l-2.68.72ZM196.32,143.4l2.68,5.16v16.81l-2.68-4.64Zm0,32.21,2.68,4.21v12.6l-2.68-3.83Zm0,24.43,2.68,3.5v9.92l-2.68-3.2Zm0,19.43L199,222.4v8.12l-2.68-2.68Zm0,16L199,238v6.87l-2.68-2.25Zm0,13.66,2.68,2.06v6l-2.68-1.88Zm0,11.94,2.68,1.71v5.32l-2.68-1.55Zm0,10.68,2.68,1.4V278l-2.68-1.25Zm0,9.75,2.68,1.11v4.48l-2.68-1Zm0,9.07,2.68.85v4.21l-2.68-.72Zm0,8.58,2.68.6v4l-2.68-.48Zm0,8.26,2.68.35v3.93l-2.68-.23Zm0,8.06,2.68.12v3.89h-2.68Zm0,8,2.68-.12v3.9l-2.68.24Zm0,8.07,2.68-.36v4l-2.68.47Zm0,8.25,2.68-.59v4.11l-2.68.72Zm-4.47,5.44-2.68.72v-4.57l2.68-.6Zm0-8.81-2.68.47v-4.41l2.68-.35Zm0-8.54-2.68.23v-4.33l2.68-.11Zm0-8.41h-2.68V315.2l2.68.12Zm0-8.41-2.68-.24v-4.36l2.68.35Zm0-8.55-2.68-.47v-4.48l2.68.59Zm0-8.81-2.68-.72v-4.67l2.68.84Zm0-9.23-2.68-1v-5l2.68,1.11Zm0-9.84-2.68-1.25v-5.36l2.68,1.39Zm0-10.68-2.68-1.54v-5.91l2.68,1.71Zm0-11.81-2.68-1.88v-6.63l2.68,2.06Zm0-13.35-2.68-2.25V229l2.68,2.46Zm0-15.47-2.68-2.69v-9l2.68,2.93Zm0-18.44-2.68-3.2v-11l2.68,3.5Zm0-22.73-2.68-3.83v-14l2.68,4.21Zm0-29.22-2.68-4.65V129.66l2.68,5.15Z" transform="translate(-19.68 -80.38)"/><path class="cls-3" d="M546.25,166.67v3.73l-9.48,5.47v-12l-9.47-2.77v20.23l-9.48,5.47V158.59l8.9,2.37-28.24-8.25-8.72-2.55-4.4,3.67L470.75,166V386.81L498.48,397l57.84,20.33V169.61Zm-66.32,18.46,5.43-3.81,4-2.83v24.75l-4,2.33-5.43,3.14V185.13ZM489.4,355l-4-.71-5.43-1V336.31l5.43.47,4,.36Zm0-35.51h-9.47V302.73l5.43-.48,4-.35Zm0-35.52-4,.72-5.43,1V268.09l5.43-1.46,4-1.08Zm0-37.79-4,1.47-5.43,2V230l5.43-2.53,4-1.89Zm19,112.16-9.47-1.67V338l9.47.83Zm0-38.85h-9.47V301.07l9.47-.83Zm0-38.86-9.47,1.67V263l9.47-2.54Zm0-41.34-9.47,3.44V221.18l9.47-4.41Zm0-47-9.47,5.47V171.86l9.47-6.63ZM527.3,361.71,517.82,360V339.62l9.48.83Zm0-42.19h-9.48V299.41l9.48-.83Zm0-42.2L517.82,279V257.94l9.48-2.54Zm0-44.9-9.48,3.45V212.35l9.48-4.42Zm19,132.63-9.48-1.67v-22.1l9.48.83Zm0-45.53h-9.48V297.75l9.48-.83Zm0-45.54-9.48,1.67V252.86l9.48-2.54Zm0-48.46L536.77,229V203.51l9.48-4.41Z" transform="translate(-19.68 -80.38)"/><path class="cls-3" d="M107.35,385.39l-.81-119.32c-8.41-2.88-25.42-5.05-46.1-5.77-4.78-.16-9.75-.25-14.85-.25-7.87,0-15.42.21-22.44.59h-.28l-3.19.2V408.34a168.75,168.75,0,0,0,19.53,1.89c2.1.08,4.24.13,6.41.13,5.14,0,10.1-.23,14.82-.63,3-.25,6-.58,8.78-1,21.09-2.88,35.82-8.95,37.92-12.15a5,5,0,0,1,.28-.95v-1.28ZM79.19,272.21c5.36.56,9.67,1.21,12.92,1.84V392a101.31,101.31,0,0,1-12.68,3.61l-.24.05Zm-23.27-1.43,4.52.14c3,.11,5.77.25,8.39.42V397.51c-2.66.39-5.47.72-8.39,1-1.48.14-3,.27-4.52.37ZM32.64,398.67V270.85c4-.13,8.32-.21,12.92-.21V399.2C41.06,399.19,36.74,399,32.64,398.67Z" transform="translate(-19.68 -80.38)"/><path d="M556.32,417.36l-85.57-30.55V166l14.61-12.21,4.4-3.67,8.72,2.55v-31.6l-38.76-14.44v-7L414.41,82.74V366.06l-19.09-7V143.45l-26.46-8.31v0h0l-5.42,9.9V133.78a.89.89,0,1,0-1.78,0V148.3l-3.58,6.54V126.17a.9.9,0,0,0-1.79,0V158.1l-10.73,19.6v59l-4,5.63-5.28-25.41-6.7,42.44L318.7,274.76V251.52H307.33v3.53l0,.08v-3.8l-9,16.52v17.91l.12-.17,2.73-.45-2.52,3.36.16,1.9a35,35,0,0,0-26.57,1.6L268,284.81c-.73-8.75-1.3-15.51-1.3-15.52a.93.93,0,0,0-.3-.61,1,1,0,0,0,.46-.76c0-.11-1.16-8-1.16-8,0-.46-.52-.86-1.37-1.16,0-.11,0-.19,0-.21h0a.19.19,0,0,0,0-.08l.1-.06c1.1-.32,1.81-.8,1.89-1.34a.42.42,0,0,0,.08-.22c0-.65-2.07-1.87-2.07-2a.61.61,0,0,0-.27-.45,13.74,13.74,0,0,1,1.77-5.28,4.21,4.21,0,0,1,1-1c.8-.69.9-2.45.92-3a1.55,1.55,0,0,0,.31-.49c0-.2,0-.4,0-.6,0-2.07-1-16.49-5.64-18.7,0-.27,0-.94,0-1v0c0-.19-.37-.35-.88-.4,0-1.25-.19-5.3-.19-5.3s-.05,0-.12,0-.11,0-.11,0-.15,4.05-.2,5.3c-.5.05-.88.21-.88.4v0c0,.05,0,.69,0,1-4.73,2.17-5.64,16.64-5.64,18.72,0,.2,0,.4,0,.6a1.26,1.26,0,0,0,.31.49c0,.58.11,2.34.91,3a3.87,3.87,0,0,1,1,1.09,15.36,15.36,0,0,1,1.75,5.24.6.6,0,0,0-.25.44c0,.17-2.07,1.39-2.07,2a.42.42,0,0,0,.08.22c.07.54.79,1,1.88,1.34l.11.06s0,.06,0,.08h0s0,.1,0,.21c-.84.3-1.36.7-1.36,1.16,0,0-.3,2.06-.6,4.09l-6.16-10.71V202.87a21.68,21.68,0,0,0-16.55-21.05V155.69a.9.9,0,0,0-1.79,0v25.77a21.73,21.73,0,0,0-3.35-.28,5.2,5.2,0,0,0-5.2,5.2v20.18l-6-10.34V345.39l-31.6,11.52V99.63l-37.57,12.52v7.25l7.32,10.47,12.38,17.72V176l-19.7-23.45L134.05,136l-13.43-16-.63-.75.17-10.29.39-24.55.07-4.07-60.18,24.7v33.6l.48-.14-.1.14,17.29,12.23v14.66l-17.67,4.86V206a59.49,59.49,0,0,1,6.31,1.89h0c1.29.46,2.55,1,3.8,1.52l.4.17c1.19.53,2.36,1.1,3.51,1.7l.54.28c1.12.6,2.23,1.24,3.32,1.91l.53.32c1.09.69,2.17,1.4,3.22,2.15l.42.31c1.08.78,2.14,1.59,3.18,2.44l.19.17a66.73,66.73,0,0,1,6.2,5.82l.17.18Q93.65,226.42,95,228l.24.29c.87,1.07,1.71,2.17,2.53,3.29a2.83,2.83,0,0,0,.2.28c.82,1.15,1.61,2.33,2.37,3.53l.09.16A72.24,72.24,0,0,1,108,252s0,.09,0,.13c.46,1.45.87,2.91,1.24,4.39l0,.15c.37,1.5.7,3,1,4.55h0c-6-3.69-25.35-6.58-49.82-7.42-4.78-.17-9.75-.26-14.85-.26-9.19,0-17.94.29-25.91.8v6.48l3.19-.2h.28c7-.38,14.57-.59,22.44-.59,5.1,0,10.07.09,14.85.25,20.68.72,37.69,2.89,46.1,5.77l.81,119.32.06,9v1.28a5,5,0,0,0-.28.95c-2.1,3.2-16.83,9.27-37.92,12.15-2.82.39-5.75.72-8.78,1-4.72.4-9.68.63-14.82.63-2.17,0-4.31-.05-6.41-.13a168.75,168.75,0,0,1-19.53-1.89v9l10.46,3h0L194,468.21l94,27.41ZM426,224.17l3.88-2.81,9.84-7.13,13.11-9.51v175.5l-22.95-8.45L426,370.34Zm26.83-120.06v76.16l-13.11,11.52-9.84,8.63-3.88,3.4V138.7l4.63-6Zm-95.4,95.09,11.38-19.89,0,0,15.43-27V355l-3.57-1.31-11.88-4.37-11.38-4.2V199.2ZM111.21,268.39h0v0Zm9.41-95v-20.7l27.25,27,1.53,1.51,18.17,18V363.43l-19.7,7.18-27.25,9.94Z" transform="translate(-19.68 -80.38)"/><path d="M47,204.31V184l-2.53.4v19.95c.48,0,1,0,1.43,0Z" transform="translate(-19.68 -80.38)"/><polygon class="cls-4" points="128.19 39.01 100.94 0 100.87 4.07 100.47 28.62 100.31 38.91 100.94 39.66 114.37 55.65 128.19 72.11 147.89 95.57 147.89 67.21 135.51 49.48 128.19 39.01"/><polygon class="cls-4" points="421.95 55.56 420.07 57.8 406.46 73.97 406.37 85.41 406.35 87.67 407.97 85.92 420.07 72.82 433.02 58.79 433.18 58.61 433.18 57.67 433.18 42.22 422.89 54.44 421.95 55.56"/><polygon class="cls-4" points="410.23 96.72 406.46 100.5 406.35 111.81 410.23 108.31 420.07 99.4 433.18 87.53 433.18 73.67 420.07 86.84 410.23 96.72"/><polygon class="cls-4" points="349.18 123.08 349.16 123.1 342.4 132.64 342.4 132.77 342.4 159.92 342.4 177.06 349.16 171.38 357.16 164.67 357.16 111.82 355.79 113.74 349.18 123.08"/><polygon class="cls-4" points="460.25 187.71 460.25 205.29 465.68 204.34 469.72 203.62 469.72 185.17 465.68 186.25 460.25 187.71"/><polygon class="cls-4" points="460.25 149.64 460.25 169.28 465.68 167.3 469.72 165.83 469.72 145.22 465.68 147.1 460.25 149.64"/><polygon class="cls-4" points="460.25 222.34 460.25 239.14 465.68 239.14 469.72 239.14 469.72 221.51 465.68 221.87 460.25 222.34"/><polygon class="cls-4" points="460.25 255.93 460.25 272.98 465.68 273.94 469.72 274.65 469.72 256.76 465.68 256.4 460.25 255.93"/><polygon class="cls-4" points="460.25 104.75 460.25 108.62 460.25 128.33 465.68 125.19 469.72 122.86 469.72 111.47 469.72 98.11 465.68 100.94 460.25 104.75"/><polygon class="cls-4" points="479.19 239.14 488.67 239.14 488.67 219.86 479.19 220.69 479.19 239.14"/><polygon class="cls-4" points="479.19 162.38 488.67 158.94 488.67 136.38 479.19 140.8 479.19 162.38"/><polygon class="cls-4" points="479.19 117.39 488.67 111.92 488.67 84.84 479.19 91.48 479.19 117.39"/><polygon class="cls-4" points="479.19 201.95 488.67 200.28 488.67 180.09 479.19 182.63 479.19 201.95"/><polygon class="cls-4" points="479.19 276.32 488.67 277.99 488.67 258.41 479.19 257.58 479.19 276.32"/><polygon class="cls-4" points="498.14 155.49 507.62 152.04 507.62 127.55 498.14 131.97 498.14 155.49"/><polygon class="cls-4" points="498.14 77.98 498.14 106.45 507.62 100.98 507.62 80.75 507.62 80.73 507.04 80.58 498.14 77.98"/><polygon class="cls-4" points="517.09 83.53 517.09 95.49 526.57 90.02 526.57 86.29 517.09 83.53"/><polygon class="cls-4" points="498.14 239.14 507.62 239.14 507.62 218.2 498.14 219.03 498.14 239.14"/><polygon class="cls-4" points="498.14 198.61 507.62 196.94 507.62 175.02 498.14 177.55 498.14 198.61"/><polygon class="cls-4" points="498.14 279.66 507.62 281.33 507.62 260.07 498.14 259.24 498.14 279.66"/><polygon class="cls-4" points="517.09 283 526.57 284.67 526.57 261.73 517.09 260.9 517.09 283"/><polygon class="cls-4" points="517.09 148.59 526.57 145.14 526.57 118.71 517.09 123.13 517.09 148.59"/><polygon class="cls-4" points="517.09 195.27 526.57 193.6 526.57 169.94 517.09 172.48 517.09 195.27"/><polygon class="cls-4" points="517.09 239.14 526.57 239.14 526.57 216.54 517.09 217.37 517.09 239.14"/><polygon class="cls-4" points="169.49 265.62 172.17 264.9 172.17 260.45 169.49 261.05 169.49 265.62"/><polygon class="cls-4" points="169.49 182.07 172.17 183.62 172.17 177.88 169.49 176.17 169.49 182.07"/><polygon class="cls-4" points="169.49 169.93 172.17 171.81 172.17 165.36 169.49 163.3 169.49 169.93"/><polygon class="cls-4" points="169.49 193.05 172.17 194.3 172.17 189.08 169.49 187.69 169.49 193.05"/><polygon class="cls-4" points="169.49 203.16 172.17 204.14 172.17 199.31 169.49 198.2 169.49 203.16"/><polygon class="cls-4" points="169.49 212.65 172.17 213.37 172.17 208.82 169.49 207.97 169.49 212.65"/><polygon class="cls-4" points="169.49 67.95 172.17 72.6 172.17 54.43 169.49 49.28 169.49 67.95"/><polygon class="cls-4" points="169.49 97.99 172.17 101.82 172.17 88.21 169.49 84 169.49 97.99"/><polygon class="cls-4" points="169.49 140.3 172.17 142.99 172.17 134.21 169.49 131.28 169.49 140.3"/><polygon class="cls-4" points="169.49 156.2 172.17 158.46 172.17 151.03 169.49 148.57 169.49 156.2"/><polygon class="cls-4" points="169.49 121.35 172.17 124.55 172.17 113.83 169.49 110.33 169.49 121.35"/><polygon class="cls-4" points="169.49 256.56 172.17 256.09 172.17 251.79 169.49 252.15 169.49 256.56"/><polygon class="cls-4" points="169.49 247.78 172.17 247.55 172.17 243.33 169.49 243.45 169.49 247.78"/><polygon class="cls-4" points="169.49 239.14 172.17 239.14 172.17 234.94 169.49 234.82 169.49 239.14"/><polygon class="cls-4" points="169.49 221.71 172.17 222.18 172.17 217.82 169.49 217.22 169.49 221.71"/><polygon class="cls-4" points="169.49 230.49 172.17 230.72 172.17 226.48 169.49 226.12 169.49 230.49"/><polygon class="cls-4" points="176.64 147.46 179.32 150.14 179.32 142.01 176.64 139.09 176.64 147.46"/><polygon class="cls-4" points="176.64 162.21 179.32 164.46 179.32 157.59 176.64 155.13 176.64 162.21"/><polygon class="cls-4" points="176.64 129.88 179.32 133.07 179.32 123.16 176.64 119.66 176.64 129.88"/><polygon class="cls-4" points="176.64 108.2 179.32 112.04 179.32 99.44 176.64 95.23 176.64 108.2"/><polygon class="cls-4" points="176.64 196.38 179.32 197.64 179.32 192.81 176.64 191.41 176.64 196.38"/><polygon class="cls-4" points="176.64 214.57 179.32 215.29 179.32 211.08 176.64 210.23 176.64 214.57"/><polygon class="cls-4" points="176.64 205.77 179.32 206.74 179.32 202.27 176.64 201.16 176.64 205.77"/><polygon class="cls-4" points="176.64 186.21 179.32 187.75 179.32 182.44 176.64 180.73 176.64 186.21"/><polygon class="cls-4" points="176.64 174.94 179.32 176.82 179.32 170.85 176.64 168.79 176.64 174.94"/><polygon class="cls-4" points="176.64 231.12 179.32 231.35 179.32 227.42 176.64 227.07 176.64 231.12"/><polygon class="cls-4" points="176.64 80.34 179.32 84.99 179.32 68.18 176.64 63.02 176.64 80.34"/><polygon class="cls-4" points="176.64 263.7 179.32 262.98 179.32 258.87 176.64 259.46 176.64 263.7"/><polygon class="cls-4" points="176.64 222.97 179.32 223.44 179.32 219.41 176.64 218.81 176.64 222.97"/><polygon class="cls-4" points="176.64 247.16 179.32 246.92 179.32 243.02 176.64 243.14 176.64 247.16"/><polygon class="cls-4" points="176.64 239.14 179.32 239.14 179.32 235.25 176.64 235.13 176.64 239.14"/><polygon class="cls-4" points="176.64 255.3 179.32 254.83 179.32 250.85 176.64 251.21 176.64 255.3"/><polygon class="cls-4" points="183.8 92.74 186.48 97.38 186.48 81.92 183.8 76.77 183.8 92.74"/><polygon class="cls-4" points="183.8 261.78 186.48 261.06 186.48 257.28 183.8 257.87 183.8 261.78"/><polygon class="cls-4" points="183.8 138.41 186.48 141.6 186.48 132.48 183.8 128.98 183.8 138.41"/><polygon class="cls-4" points="183.8 199.72 186.48 200.97 186.48 196.53 183.8 195.14 183.8 199.72"/><polygon class="cls-4" points="183.8 208.37 186.48 209.35 186.48 205.24 183.8 204.13 183.8 208.37"/><polygon class="cls-4" points="183.8 190.34 186.48 191.88 186.48 187 183.8 185.29 183.8 190.34"/><polygon class="cls-4" points="183.8 216.49 186.48 217.21 186.48 213.33 183.8 212.49 183.8 216.49"/><polygon class="cls-4" points="183.8 168.21 186.48 170.46 186.48 164.14 183.8 161.68 183.8 168.21"/><polygon class="cls-4" points="183.8 179.95 186.48 181.83 186.48 176.34 183.8 174.28 183.8 179.95"/><polygon class="cls-4" points="183.8 224.23 186.48 224.71 186.48 220.99 183.8 220.4 183.8 224.23"/><polygon class="cls-4" points="183.8 154.61 186.48 157.3 186.48 149.82 183.8 146.9 183.8 154.61"/><polygon class="cls-4" points="183.8 254.04 186.48 253.57 186.48 249.91 183.8 250.26 183.8 254.04"/><polygon class="cls-4" points="183.8 246.53 186.48 246.3 186.48 242.71 183.8 242.83 183.8 246.53"/><polygon class="cls-4" points="183.8 118.42 186.48 122.26 186.48 110.67 183.8 106.46 183.8 118.42"/><polygon class="cls-4" points="183.8 239.14 186.48 239.14 186.48 235.56 183.8 235.44 183.8 239.14"/><polygon class="cls-4" points="183.8 231.74 186.48 231.98 186.48 228.36 183.8 228.01 183.8 231.74"/><polygon class="cls-4" points="190.95 146.93 193.63 150.13 193.63 141.8 190.95 138.31 190.95 146.93"/><polygon class="cls-4" points="190.95 161.77 193.63 164.45 193.63 157.63 190.95 154.7 190.95 161.77"/><polygon class="cls-4" points="190.95 174.22 193.63 176.47 193.63 170.7 190.95 168.24 190.95 174.22"/><polygon class="cls-4" points="190.95 239.14 193.63 239.14 193.63 235.88 190.95 235.76 190.95 239.14"/><polygon class="cls-4" points="190.95 232.37 193.63 232.6 193.63 229.3 190.95 228.95 190.95 232.37"/><polygon class="cls-4" points="190.95 225.49 193.63 225.97 193.63 222.58 190.95 221.98 190.95 225.49"/><polygon class="cls-4" points="190.95 252.78 193.63 252.31 193.63 248.97 190.95 249.32 190.95 252.78"/><polygon class="cls-4" points="190.95 184.96 193.63 186.84 193.63 181.83 190.95 179.77 190.95 184.96"/><polygon class="cls-4" points="190.95 245.91 193.63 245.67 193.63 242.4 190.95 242.51 190.95 245.91"/><polygon class="cls-4" points="190.95 105.13 193.63 109.78 193.63 95.67 190.95 90.51 190.95 105.13"/><polygon class="cls-4" points="190.95 259.87 193.63 259.15 193.63 255.69 190.95 256.29 190.95 259.87"/><polygon class="cls-4" points="190.95 128.64 193.63 132.47 193.63 121.9 190.95 117.69 190.95 128.64"/><polygon class="cls-4" points="190.95 218.41 193.63 219.12 193.63 215.59 190.95 214.74 190.95 218.41"/><polygon class="cls-4" points="190.95 194.47 193.63 196.02 193.63 191.56 190.95 189.85 190.95 194.47"/><polygon class="cls-4" points="190.95 210.98 193.63 211.95 193.63 208.2 190.95 207.09 190.95 210.98"/><polygon class="cls-4" points="190.95 203.06 193.63 204.31 193.63 200.26 190.95 198.86 190.95 203.06"/><path class="cls-4" d="M109.29,256.69l0-.15c-.37-1.48-.78-2.94-1.24-4.39,0,0,0-.08,0-.13a72.24,72.24,0,0,0-7.58-16.45l-.09-.16c-.76-1.2-1.55-2.38-2.37-3.53a2.83,2.83,0,0,1-.2-.28c-.81-1.12-1.66-2.22-2.53-3.29L95,228q-1.32-1.61-2.73-3.12l-.17-.18a66.73,66.73,0,0,0-6.2-5.82l-.19-.17c-1-.85-2.1-1.66-3.18-2.44l-.42-.31c-1-.75-2.13-1.46-3.22-2.15l-.53-.32c-1.09-.67-2.2-1.31-3.32-1.91l-.54-.28c-1.15-.6-2.32-1.17-3.51-1.7l-.4-.17c-1.25-.54-2.51-1.06-3.8-1.52h0A59.49,59.49,0,0,0,60.44,206c-.42-.1-.83-.21-1.25-.3a57.08,57.08,0,0,0-6-1q-3.06-.36-6.18-.42l-1.1,0c-.48,0-.95,0-1.43,0a60.77,60.77,0,0,0-19.42,3.61h0c-1.28.46-2.54,1-3.79,1.51l-.39.17c-.4.18-.78.39-1.18.57v44.19c8-.51,16.72-.8,25.91-.8,5.1,0,10.07.09,14.85.26,24.47.84,43.81,3.73,49.82,7.42h0C110,259.71,109.66,258.19,109.29,256.69Z" transform="translate(-19.68 -80.38)"/><path class="cls-4" d="M111.21,268.39h0v0Z" transform="translate(-19.68 -80.38)"/><path class="cls-4" d="M32.64,398.67c4.1.33,8.42.52,12.92.53V270.64c-4.6,0-8.9.08-12.92.21Z" transform="translate(-19.68 -80.38)"/><path class="cls-4" d="M55.92,270.78V398.87c1.54-.1,3-.23,4.52-.37,2.92-.27,5.73-.6,8.39-1V271.34c-2.62-.17-5.43-.31-8.39-.42Z" transform="translate(-19.68 -80.38)"/><path class="cls-4" d="M79.19,395.62l.24-.05A101.31,101.31,0,0,0,92.11,392V274.05c-3.25-.63-7.56-1.28-12.92-1.84Z" transform="translate(-19.68 -80.38)"/><polygon class="cls-4" points="346.76 210.42 346.76 215.15 349.16 214.43 350.46 214.03 350.46 209.08 349.16 209.55 346.76 210.42"/><polygon class="cls-4" points="346.76 202.4 346.76 207.45 349.16 206.49 350.46 205.97 350.46 200.67 349.16 201.28 346.76 202.4"/><polygon class="cls-4" points="346.76 193.68 346.76 199.19 349.16 197.97 350.46 197.32 350.46 191.55 349.16 192.3 346.76 193.68"/><polygon class="cls-4" points="346.76 217.96 346.76 222.46 349.16 221.95 350.46 221.68 350.46 216.97 349.16 217.31 346.76 217.96"/><polygon class="cls-4" points="342.4 201.4 344.38 200.4 344.38 195.06 342.4 196.2 342.4 201.4"/><polygon class="cls-4" points="342.4 209.21 344.38 208.41 344.38 203.51 342.4 204.43 342.4 209.21"/><polygon class="cls-4" points="342.4 216.48 344.38 215.88 344.38 211.29 342.4 212.01 342.4 216.48"/><polygon class="cls-4" points="353.43 195.81 357.16 193.92 357.16 187.68 353.43 189.84 353.43 195.81"/><polygon class="cls-4" points="353.43 186.02 357.16 183.69 357.16 177.1 353.43 179.83 353.43 186.02"/><polygon class="cls-4" points="353.43 204.78 357.16 203.28 357.16 197.55 353.43 199.29 353.43 204.78"/><polygon class="cls-4" points="353.43 213.13 357.16 212 357.16 206.64 353.43 208 353.43 213.13"/><polygon class="cls-4" points="342.4 192.88 344.38 191.65 344.38 186.46 342.4 187.91 342.4 192.88"/><polygon class="cls-4" points="346.76 225.14 346.76 232.11 349.16 231.93 350.46 231.84 350.46 224.49 349.16 224.72 346.76 225.14"/><polygon class="cls-4" points="342.4 232.42 344.38 232.28 344.38 225.56 342.4 225.91 342.4 232.42"/><polygon class="cls-4" points="353.43 231.63 357.16 231.36 357.16 223.31 353.43 223.97 353.43 231.63"/><polygon class="cls-4" points="342.4 223.37 344.38 222.96 344.38 218.59 342.4 219.12 342.4 223.37"/><polygon class="cls-4" points="346.76 184.72 346.76 190.16 349.16 188.67 350.46 187.87 350.46 182.01 349.16 182.96 346.76 184.72"/><polygon class="cls-4" points="353.43 221.05 357.16 220.27 357.16 215.17 353.43 216.17 353.43 221.05"/><polygon class="cls-5" points="128.19 99.31 100.94 72.31 100.94 73.5 100.94 81.83 100.94 93.01 100.94 300.17 128.19 290.23 147.89 283.05 147.89 118.82 129.72 100.82 128.19 99.31"/><polygon class="cls-5" points="406.46 73.97 420.07 57.8 421.95 55.56 422.89 54.44 433.18 42.22 433.18 23.73 410.97 52.36 406.35 58.31 406.35 85.41 406.35 87.67 406.37 85.41 406.46 73.97"/><polygon class="cls-5" points="410.23 120.04 420.07 111.41 433.18 99.89 433.18 87.53 420.07 99.4 410.23 108.31 406.35 111.81 406.35 123.44 410.23 120.04"/><polygon class="cls-5" points="406.46 100.5 410.23 96.72 420.07 86.84 433.18 73.67 433.18 58.83 433.18 58.61 433.02 58.79 420.07 72.82 407.97 85.92 406.35 87.67 406.35 111.81 406.46 100.5"/><path class="cls-5" d="M368.84,179.31,357.46,199.2V345.09l11.38,4.2,11.88,4.37,3.57,1.31V152.32l-15.43,27Zm-4.78,133.35-2,.14v-6.51l2-.35Zm0-9.32-2,.42V299.5l2-.52Zm0-7.08-2,.6v-4.47l2-.72Zm0-7.47-2,.8v-4.78l2-.92Zm0-8-2,1v-5.21l2-1.14Zm0-8.75-2,1.23v-5l2-1.45Zm6.08,40.19-1.3.1-2.4.17v-7l2.4-.42,1.3-.23Zm0-10.16-1.3.27-2.4.51v-4.5l2.4-.65,1.3-.34Zm0-7.65-1.3.4-2.4.73V290.8l2.4-.87,1.3-.47Zm0-8.06-1.3.52-2.4,1v-5.06l2.4-1.12,1.3-.61Zm0-8.65-1.3.66-2.4,1.21v-5.5l2.4-1.39,1.3-.75Zm0-9.45-1.3.8-2.4,1.5V265.1l2.4-1.76,1.3-.95Zm6.7-4.17-3.73,2.32v-6.19l3.73-2.73Zm0,4v6.24l-3.73,1.89v-6Zm0,9.87v5.73l-3.73,1.5v-5.49Zm0,9.09v5.36l-3.73,1.13v-5.13Zm0,8.53v5.1l-3.73.78v-4.88Zm0,8.14v8.05l-3.73.27v-7.66Zm-1.36-109.56,1.36-1.93v52.85l-8,6.71-6.76,5.68V213l6.76-9.54h0Z" transform="translate(-19.68 -80.38)"/><polygon class="cls-5" points="410.23 140.98 406.35 143.79 406.35 289.96 410.23 291.39 433.18 299.84 433.18 290.71 433.18 127.32 433.18 124.34 420.07 133.85 410.23 140.98"/><path class="cls-5" d="M19.68,210.16v0c.4-.18.78-.39,1.18-.57Z" transform="translate(-19.68 -80.38)"/><path class="cls-5" d="M85.87,218.9q1.63,1.35,3.19,2.8Q87.5,220.25,85.87,218.9Z" transform="translate(-19.68 -80.38)"/><path class="cls-5" d="M89.06,221.7c1,1,2,2,3,3C91.09,223.68,90.09,222.68,89.06,221.7Z" transform="translate(-19.68 -80.38)"/><path class="cls-5" d="M106.05,246.74a71.74,71.74,0,0,0-5.65-11.17A71.74,71.74,0,0,1,106.05,246.74Z" transform="translate(-19.68 -80.38)"/><path class="cls-5" d="M108,252c-.57-1.8-1.23-3.55-1.93-5.28C106.75,248.47,107.41,250.22,108,252Z" transform="translate(-19.68 -80.38)"/><path class="cls-5" d="M23.15,260.64c7-.38,14.57-.59,22.44-.59,5.1,0,10.07.09,14.85.25-4.78-.16-9.75-.25-14.85-.25C37.72,260.05,30.17,260.26,23.15,260.64Z" transform="translate(-19.68 -80.38)"/><path class="cls-5" d="M19.68,260.85l3.19-.2-3.19.2Z" transform="translate(-19.68 -80.38)"/><path class="cls-5" d="M106.54,266.07c-7.36-2.52-21.3-4.5-38.53-5.43C85.24,261.57,99.18,263.55,106.54,266.07Z" transform="translate(-19.68 -80.38)"/><polygon class="cls-6" points="268.54 247.52 154.06 289.09 381.87 289.28 268.54 247.52"/><path class="cls-4" d="M502.42,406.82l-8-2.93h-83l-33.92-21.35h58.95l-7.95-2.93H372.92l-26-16.37h37.24l-8-2.93H342.24l-20.32-12.79h19.55l-8-2.93H317.27l-16.08-10.12h4.86l-7.95-2.93h-1.57l-2.22-1.4-4.15-1.53-.34-.12-.35-.14h0l-1.22-.45-1.6.58-.1,0-.19.07-.63.22-4.52,1.64-1.72,1.09H278.2l-8.08,2.93h4.69l-16.08,10.12H242.21l-8.08,2.93h20l-20.33,12.79H198.86l-8.08,2.93H229.1l-26,16.37H145.62l-8.09,2.93h60.89L164.5,403.89H110.91a31.72,31.72,0,0,1-4.62,2.93h53.56L104,442l.35.1,3.41,1,6.64,1.94h99.31l-15.2,24.52,2.92.85L217.17,445h69.36v50.18l1.54.44,1.4-.4V445h69.35l15.73,25.38,2.92-.86L362.27,445h99.2l6.71-2,3.33-1,.43-.13-55.79-35.11ZM406,403.89H336.81l-13.23-21.35h48.5ZM289.47,363.24h18.7l10.15,16.37H289.47Zm0-2.93V347.52h9l7.92,12.79Zm0-15.72V334.47h.87l6.27,10.12Zm-2.94-10.12v10.12h-7.15l6.27-10.12Zm0,13v12.79H269.64l7.93-12.79Zm0,15.72v16.37H257.68l10.15-16.37Zm0,19.3v21.35H242.64l13.23-21.35Zm2.94,0h30.66l13.23,21.35H289.47Zm77.95-2.93H321.76l-10.14-16.37H341.4Zm-30.68-19.3H309.8l-7.92-12.79h14.54Zm-25-15.72h-11.7l-6.27-10.12h1.89Zm-31.44-10.12h1.89l-6.27,10.12h-11.7Zm-20.74,13h14.54l-7.92,12.79H239.26Zm-25,15.72h29.78l-10.15,16.37H208.58Zm-30.68,19.3h48.5l-13.23,21.35H170Zm-94.56,59.52,56-35.24h72l-21.84,35.24Zm109.63,0,21.83-35.24h45.71v35.24Zm70.48,0V406.82h45.71L357,442.06Zm177.17,0H360.46l-21.84-35.24h72Z" transform="translate(-19.68 -80.38)"/><g class="cls-7"><circle class="cls-8" cx="268.08" cy="248.91" r="97.58"/></g></svg>